<svg xmlns:inkscape="http://www.inkscape.org/namespaces/inkscape" xmlns:sodipodi="http://sodipodi.sourceforge.net/DTD/sodipodi-0.dtd" xmlns="http://www.w3.org/2000/svg" xmlns:svg="http://www.w3.org/2000/svg" version="1.1" id="svg5" inkscape:version="1.1.2 (b8e25be833, 2022-02-05)" sodipodi:docname="KFG KULCS logo saját 4 - #1BAE70 - rgb(27, 174, 112).svg" viewBox="9.82 40.33 196.02 196.02">
  <sodipodi:namedview id="namedview7" pagecolor="#505050" bordercolor="#eeeeee" borderopacity="1" inkscape:pageshadow="0" inkscape:pageopacity="0" inkscape:pagecheckerboard="0" inkscape:document-units="mm" showgrid="false" inkscape:zoom="0.7198092" inkscape:cx="245.20387" inkscape:cy="464.01185" inkscape:window-width="1920" inkscape:window-height="1001" inkscape:window-x="-9" inkscape:window-y="-9" inkscape:window-maximized="1" inkscape:current-layer="layer1"/>
  <defs id="defs2"/>
  <g inkscape:label="Layer 1" inkscape:groupmode="layer" id="layer1">
    <circle style="fill:#ffffff;stroke-width:3.67788" id="path31" cx="107.82921" cy="138.33786" r="98.01236"/>
    <ellipse style="fill:#1bae70;fill-opacity:1;stroke-width:2.90933" id="path179" cx="108.25394" cy="138.5755" rx="81.781921" ry="81.96907"/>
    <circle style="fill:#ffffff;stroke-width:3.05817" id="path305" cx="108.29501" cy="139.12685" r="63.406559"/>
    <rect style="fill:#4d4d4d;fill-opacity:1;stroke-width:2.99056" id="rect5541" width="13.74067" height="81.069939" x="163.80321" y="13.299377" ry="0.18932107" transform="rotate(38.791219)"/>
    <ellipse style="fill:#4d4d4d;fill-opacity:1;stroke-width:2.99056" id="path5689" cx="170.09442" cy="17.667631" rx="25.935513" ry="20.954519" transform="rotate(35.962644)"/>
    <circle style="fill:#ffffff;fill-opacity:1;stroke-width:2.99056" id="path5815" cx="130.56239" cy="110.06723" r="10.305502"/>
    <rect style="fill:#4d4d4d;fill-opacity:1;stroke-width:2.99056" id="rect5941" width="9.9619846" height="15.458255" x="-86.734573" y="174.83075" ry="0.18932107" transform="rotate(-50.901627)"/>
    <rect style="fill:#4d4d4d;fill-opacity:1;stroke-width:2.5587" id="rect5941-3" width="8.5761299" height="13.144664" x="-63.34584" y="173.1152" ry="0.16098599" transform="matrix(0.60761114,-0.79423467,0.75698769,0.65342914,0,0)"/>
    <path style="fill:#1bae70;fill-opacity:1;stroke-width:8.40118" d="m 391.42317,832.79283 c -12.44134,-1.06712 -20.2724,-1.92996 -27.84063,-3.06756 C 239.68845,811.10246 139.55909,719.58279 109.38583,597.38586 c -6.29469,-25.49247 -8.59855,-45.22222 -8.59855,-73.63595 0,-28.41374 2.30386,-48.14349 8.59855,-73.63596 22.26775,-90.18086 83.25036,-165.43161 166.38169,-205.31013 31.87423,-15.29022 64.20637,-24.49671 101.41577,-28.87785 14.64801,-1.7247 49.25781,-1.7247 63.90582,0 29.97285,3.52909 54.74804,9.63577 80.92422,19.94649 21.65424,8.52955 38.49073,17.38998 58.69611,30.88961 63.95802,42.73167 109.55494,107.88784 128.16052,183.13622 6.30806,25.51233 8.61177,45.26816 8.61177,73.85162 0,22.88905 -0.73986,32.2931 -4.10687,52.20072 -13.92405,82.32679 -61.80414,156.81754 -130.92884,203.69608 -42.44256,28.78341 -88.81554,45.84024 -141.00959,51.86589 -8.8364,1.02013 -42.88433,1.89168 -50.01326,1.28023 z m 49.13296,-69.01958 c 43.14404,-5.74169 81.93481,-22.01774 116.88326,-49.04255 9.47033,-7.32318 31.60963,-29.17706 39.03993,-38.53664 34.58682,-43.56723 52.64987,-95.15263 52.64987,-150.36027 0,-55.20764 -18.06305,-106.79304 -52.64987,-150.36027 -7.4303,-9.35958 -29.5696,-31.21346 -39.03993,-38.53664 -35.61837,-27.54284 -75.13186,-43.85555 -119.82342,-49.46779 -12.13082,-1.52335 -41.96457,-1.71733 -53.83371,-0.35003 -106.53491,12.27263 -190.50574,89.94358 -210.39026,194.60582 -5.20579,27.40068 -5.20315,60.931 0.007,88.21782 9.23728,48.3785 31.3993,90.45134 65.88968,125.08633 22.5723,22.66694 47.00722,39.26309 76.12517,51.70406 21.254,9.08101 46.19048,15.49203 68.73527,17.6714 4.19179,0.40522 8.71548,0.86394 10.05264,1.01938 6.44862,0.74964 36.30793,-0.31361 46.35444,-1.65062 z" id="path2778" transform="scale(0.26458333)"/>
  </g>
</svg>